<?xml version="1.0" standalone="no"?>
<!DOCTYPE svg PUBLIC "-//W3C//DTD SVG 20010904//EN"
 "http://www.w3.org/TR/2001/REC-SVG-20010904/DTD/svg10.dtd">
<svg version="1.0" xmlns="http://www.w3.org/2000/svg"
 width="480.000000pt" height="480.000000pt" viewBox="0 0 480.000000 480.000000"
 preserveAspectRatio="xMidYMid meet">
<metadata>
Created by potrace 1.14, written by Peter Selinger 2001-2017
</metadata>
<g transform="translate(0.000000,480.000000) scale(0.100000,-0.100000)"
fill="#000000" stroke="none">
<path d="M0 2400 l0 -2400 2400 0 2400 0 0 2400 0 2400 -2400 0 -2400 0 0
-2400z m3281 624 c200 -27 383 -84 599 -184 96 -45 141 -60 195 -67 l70 -8
-50 -5 -50 -5 40 -25 c55 -33 243 -169 250 -179 2 -5 -28 1 -68 14 -234 72
-520 100 -768 75 -373 -38 -663 -165 -928 -406 -233 -212 -423 -329 -679 -418
-328 -114 -725 -126 -1017 -30 -248 81 -522 226 -665 353 l-45 39 111 -28
c193 -50 315 -63 524 -57 207 6 294 22 470 84 209 74 424 199 630 368 169 138
289 227 379 279 301 177 658 248 1002 200z"/>
</g>
</svg>
