<svg width="24" height="24" viewBox="0 0 24 24" fill="none" xmlns="http://www.w3.org/2000/svg">
<path d="M18.3937 5.4H18.4075M6.5 23H17.5C20.5375 23 23 20.5375 23 17.5V6.5C23 3.46243 20.5375 1 17.5 1H6.5C3.46243 1 1 3.46243 1 6.5V17.5C1 20.5375 3.46243 23 6.5 23ZM17.1562 12C17.1562 14.8478 14.8478 17.1562 12 17.1562C9.15228 17.1562 6.84375 14.8478 6.84375 12C6.84375 9.15228 9.15228 6.84375 12 6.84375C14.8478 6.84375 17.1562 9.15228 17.1562 12Z" stroke="#FCDD86" stroke-width="2" stroke-linecap="round" stroke-linejoin="round"/>
</svg>
