<svg width="26" height="27" viewBox="0 0 26 27" fill="none" xmlns="http://www.w3.org/2000/svg">
<path d="M2.16675 23.9891L3.69589 18.3943C2.75632 16.753 2.2629 14.8916 2.26532 12.9973C2.25444 7.02827 7.07039 2.18085 12.9892 2.18085C15.8619 2.18085 18.5592 3.30186 20.5901 5.34675C21.5912 6.34913 22.3847 7.5415 22.9246 8.85477C23.4645 10.168 23.7401 11.5761 23.7355 12.9973C23.7355 18.9549 18.9195 23.8023 13.0001 23.8023C11.1983 23.8023 9.43997 23.3513 7.86729 22.4835L2.16675 23.9891ZM8.11884 20.5379L8.44656 20.7355C9.82211 21.5549 11.3909 21.9876 12.9892 21.9887C17.9037 21.9887 21.9119 17.955 21.9119 13.0077C21.9119 10.6117 20.9838 8.34773 19.3016 6.65525C18.4745 5.81796 17.4908 5.15371 16.4075 4.7008C15.324 4.24789 14.1623 4.01527 12.9892 4.01635C8.0638 4.017 4.0569 8.05072 4.0569 12.998C4.0569 14.6905 4.52671 16.3508 5.42219 17.7798L5.62957 18.1205L4.72322 21.4397L8.11884 20.5379Z" fill="#FCDD86"/>
<path fill-rule="evenodd" clip-rule="evenodd" d="M10.3136 8.4688C10.1171 8.01782 9.89887 8.00686 9.71325 8.00686C9.54939 7.99591 9.37401 7.99591 9.18839 7.99591C9.01429 7.99591 8.71921 8.06163 8.4683 8.33672C8.21675 8.61118 7.5293 9.25995 7.5293 10.5897C7.5293 11.9202 8.49006 13.2061 8.62127 13.382C8.75185 13.5579 10.4775 16.3713 13.2081 17.4601C15.479 18.3615 15.9381 18.1856 16.4296 18.1302C16.9205 18.0754 18.0132 17.482 18.2423 16.8442C18.4606 16.218 18.4606 15.6685 18.3953 15.5582C18.3299 15.4487 18.1437 15.3823 17.882 15.2394C17.6087 15.1079 16.2984 14.4482 16.0475 14.36C15.7959 14.2723 15.6212 14.2285 15.4464 14.492C15.2717 14.7671 14.7583 15.3714 14.5952 15.5473C14.4415 15.7232 14.2783 15.7451 14.0159 15.6131C13.7432 15.4816 12.8803 15.1955 11.8537 14.2723C11.0561 13.5572 10.521 12.6674 10.3572 12.404C10.2048 12.1289 10.3354 11.9858 10.4775 11.8538C10.5978 11.7333 10.7508 11.5355 10.882 11.3815C11.0126 11.2269 11.0561 11.1064 11.1547 10.9305C11.2418 10.7546 11.1983 10.5897 11.1329 10.4583C11.0671 10.3372 10.5543 9.0074 10.3136 8.4688Z" fill="#FCDD86"/>
</svg>
