<svg width="24" height="22" viewBox="0 0 24 22" fill="none" xmlns="http://www.w3.org/2000/svg">
<path d="M22.8107 10.8234L12.8828 0.900617L12.2173 0.235159C12.0657 0.0845357 11.8606 0 11.6469 0C11.4332 0 11.2281 0.0845357 11.0765 0.235159L0.483142 10.8234C0.327777 10.9781 0.204989 11.1625 0.122027 11.3655C0.0390647 11.5685 -0.0023911 11.786 0.000106498 12.0053C0.0103838 12.9097 0.763199 13.6317 1.66761 13.6317H2.75957V22H20.5342V13.6317H21.6493C22.0887 13.6317 22.5023 13.4595 22.8132 13.1486C22.9663 12.9961 23.0876 12.8146 23.1701 12.6148C23.2526 12.415 23.2946 12.2009 23.2937 11.9847C23.2937 11.5479 23.1216 11.1343 22.8107 10.8234ZM13.0857 20.1501H10.2081V14.9086H13.0857V20.1501ZM18.6843 11.7818V20.1501H14.7301V14.292C14.7301 13.7242 14.2702 13.2643 13.7024 13.2643H9.59144C9.02361 13.2643 8.5637 13.7242 8.5637 14.292V20.1501H4.60949V11.7818H2.14293L11.6495 2.28292L12.243 2.87644L21.1534 11.7818H18.6843Z" fill="#777777"/>
</svg>
