<svg width="62" height="62" viewBox="0 0 62 62" fill="none" xmlns="http://www.w3.org/2000/svg">
<path d="M58.125 46.5205C54.0882 44.3939 50.9576 41.8581 48.7332 38.9135C46.4265 35.8872 45.1083 32.3292 44.7788 28.2395C45.685 28.5666 46.6736 28.7302 47.7446 28.7302C50.628 28.7302 53.0172 27.8305 54.912 26.031C56.8068 24.1497 57.7543 21.7368 57.7543 18.7922C57.7543 15.4387 56.7656 12.7803 54.7884 10.8173C52.8112 8.77242 50.2985 7.75 47.2503 7.75C43.2958 7.75 40.1652 9.30411 37.8585 12.4123C35.5517 15.4387 34.3983 19.6511 34.3983 25.0495C34.3983 31.4294 36.0872 37.1141 39.465 42.1034C42.7604 47.0929 47.621 51.1419 54.047 54.25L58.125 46.5205ZM27.6017 46.5205C23.5648 44.3939 20.434 41.8581 18.2098 38.9135C15.903 35.8872 14.5851 32.3292 14.2553 28.2395C15.1617 28.5666 16.1502 28.7302 17.2213 28.7302C20.1047 28.7302 22.494 27.8305 24.3887 26.031C26.2835 24.1497 27.2309 21.7368 27.2309 18.7922C27.2309 15.4387 26.2423 12.7803 24.2651 10.8173C22.2878 8.77242 19.7753 7.75 16.7268 7.75C12.7724 7.75 9.64178 9.30411 7.33499 12.4123C5.0282 15.4387 3.875 19.6511 3.875 25.0495C3.875 31.4294 5.56372 37.1141 8.94156 42.1034C12.2369 47.0929 17.0977 51.1419 23.5237 54.25L27.6017 46.5205Z" fill="url(#paint0_linear_111_1936)"/>
<defs>
<linearGradient id="paint0_linear_111_1936" x1="31" y1="7.75" x2="31" y2="54.25" gradientUnits="userSpaceOnUse">
<stop stop-color="#FCDD86"/>
<stop offset="1" stop-color="#E2C267"/>
</linearGradient>
</defs>
</svg>
