<svg width="41" height="41" viewBox="0 0 41 41" fill="none" xmlns="http://www.w3.org/2000/svg">
<path d="M40.3858 19.1404L19.3406 0.719101C19.1791 0.578651 18.973 0.5 18.7557 0.5H13.8259C13.4137 0.5 13.2243 1.01685 13.5362 1.28652L33.0439 18.3652H0.445636C0.200536 18.3652 0 18.5674 0 18.8146V22.1854C0 22.4326 0.200536 22.6348 0.445636 22.6348H33.0384L13.5306 39.7135C13.2187 39.9888 13.4081 40.5 13.8203 40.5H18.9173C19.0231 40.5 19.1289 40.4607 19.2069 40.3876L40.3858 21.8596C40.5786 21.6904 40.7333 21.4815 40.8392 21.247C40.9452 21.0125 41 20.7577 41 20.5C41 20.2423 40.9452 19.9875 40.8392 19.753C40.7333 19.5185 40.5786 19.3096 40.3858 19.1404Z" fill="url(#paint0_linear_111_1881)"/>
<defs>
<linearGradient id="paint0_linear_111_1881" x1="20.5" y1="0.5" x2="20.5" y2="40.5" gradientUnits="userSpaceOnUse">
<stop stop-color="#983F41"/>
<stop offset="1" stop-color="#6F1D1F"/>
</linearGradient>
</defs>
</svg>
