<svg width="40" height="30" viewBox="0 0 40 30" fill="none" xmlns="http://www.w3.org/2000/svg">
<path d="M37.8195 0H1.60526C0.834835 0 0.212402 0.609375 0.212402 1.36364V28.6364C0.212402 29.3906 0.834835 30 1.60526 30H37.8195C38.59 30 39.2124 29.3906 39.2124 28.6364V1.36364C39.2124 0.609375 38.59 0 37.8195 0ZM36.0785 4.72159V26.9318H3.34633V4.72159L2.14499 3.8054L3.85559 1.65341L5.71854 3.07244H33.7106L35.5736 1.65341L37.2842 3.8054L36.0785 4.72159ZM33.7106 3.06818L19.7124 13.7216L5.71419 3.06818L3.85124 1.64915L2.14064 3.80114L3.34198 4.71733L18.2107 16.0355C18.6383 16.3607 19.1644 16.5373 19.7059 16.5373C20.2474 16.5373 20.7734 16.3607 21.201 16.0355L36.0785 4.72159L37.2798 3.8054L35.5692 1.65341L33.7106 3.06818Z" fill="#FDE5A8"/>
</svg>
