<svg width="23" height="26" viewBox="0 0 23 26" fill="none" xmlns="http://www.w3.org/2000/svg">
<path fill-rule="evenodd" clip-rule="evenodd" d="M11.4999 24.9168L10.8343 25.7716L10.8316 25.7695L10.8249 25.7642L10.8012 25.7456L10.7891 25.736C10.7698 25.7207 10.7445 25.7007 10.7136 25.676C10.6382 25.6157 10.5291 25.5275 10.3913 25.4138C10.1158 25.1864 9.72486 24.8562 9.25673 24.4401C8.32206 23.6092 7.07261 22.4296 5.81964 21.0374C4.56981 19.6487 3.2957 18.0257 2.32907 16.3073C1.3681 14.5989 0.666504 12.7177 0.666504 10.8334C0.666504 7.96021 1.80788 5.20469 3.83953 3.17303C5.8712 1.14138 8.62672 0 11.4999 0C14.3731 0 17.1286 1.14138 19.1603 3.17303C21.1919 5.20469 22.3333 7.96021 22.3333 10.8334C22.3333 12.7177 21.6317 14.5989 20.6707 16.3073C19.7042 18.0257 18.43 19.6487 17.1802 21.0374C15.9272 22.4296 14.6778 23.6092 13.7431 24.4401C13.275 24.8562 12.884 25.1864 12.6085 25.4138C12.4707 25.5275 12.3616 25.6157 12.2862 25.676C12.2484 25.7063 12.219 25.7294 12.1987 25.7456L12.1749 25.7642L12.1682 25.7695L12.1662 25.771C12.1662 25.771 12.1659 25.7712 12.1088 25.6983L12.1661 25.772C11.7749 26.0762 11.2266 26.0759 10.8354 25.7716C10.8354 25.7716 10.836 25.772 11.5005 24.9176C11.5003 24.9173 11.5001 24.9171 11.4999 24.9168ZM11.4999 2.16668C9.20135 2.16668 6.99694 3.07978 5.37161 4.70511C3.74628 6.33044 2.83318 8.53485 2.83318 10.8334C2.83318 12.1992 3.35035 13.7034 4.21751 15.245C5.07903 16.7766 6.24242 18.2683 7.43011 19.5879C8.61466 20.904 9.80275 22.0265 10.6962 22.8207C11.0042 23.0944 11.2762 23.3283 11.4999 23.5169C11.7236 23.3283 11.9956 23.0944 12.3036 22.8207C13.1971 22.0265 14.3852 20.904 15.5697 19.5879C16.7574 18.2683 17.9208 16.7766 18.7823 15.245C19.6494 13.7034 20.1666 12.1992 20.1666 10.8334C20.1666 8.53485 19.2535 6.33044 17.6283 4.70511C16.0029 3.07978 13.7984 2.16668 11.4999 2.16668ZM11.4999 6.50003C9.10662 6.50003 7.1665 8.44014 7.1665 10.8334C7.1665 13.2266 9.10662 15.1668 11.4999 15.1668C13.8931 15.1668 15.8332 13.2266 15.8332 10.8334C15.8332 8.44014 13.8931 6.50003 11.4999 6.50003ZM9.33319 10.8334C9.33319 9.63677 10.3032 8.66671 11.4999 8.66671C12.6965 8.66671 13.6665 9.63677 13.6665 10.8334C13.6665 12.0301 12.6965 13.0001 11.4999 13.0001C10.3032 13.0001 9.33319 12.0301 9.33319 10.8334Z" fill="url(#paint0_linear_111_1859)"/>
<defs>
<linearGradient id="paint0_linear_111_1859" x1="11.4999" y1="0" x2="11.4999" y2="26" gradientUnits="userSpaceOnUse">
<stop stop-color="#983F41"/>
<stop offset="1" stop-color="#6F1D1F"/>
</linearGradient>
</defs>
</svg>
