<svg width="16" height="14" viewBox="0 0 16 14" fill="none" xmlns="http://www.w3.org/2000/svg">
<path d="M15.6216 2.86902C15.3791 2.30759 15.0295 1.79882 14.5923 1.3712C14.1548 0.94231 13.6389 0.601475 13.0728 0.367231C12.4857 0.123371 11.8561 -0.0014504 11.2204 1.27149e-05C10.3286 1.27149e-05 9.45847 0.244222 8.70233 0.705507C8.52143 0.815853 8.34958 0.937054 8.18677 1.06911C8.02397 0.937054 7.85212 0.815853 7.67122 0.705507C6.91508 0.244222 6.04497 1.27149e-05 5.15315 1.27149e-05C4.51097 1.27149e-05 3.88869 0.123022 3.30078 0.367231C2.73276 0.602396 2.22083 0.940671 1.78125 1.3712C1.34348 1.79834 0.99377 2.30723 0.751952 2.86902C0.500506 3.45332 0.37207 4.07379 0.37207 4.71235C0.37207 5.31473 0.49508 5.94244 0.739289 6.58101C0.943701 7.11465 1.23675 7.66819 1.61121 8.22716C2.20455 9.11174 3.02039 10.0343 4.0334 10.9695C5.71212 12.5198 7.37455 13.5907 7.4451 13.6341L7.87382 13.9091C8.06377 14.0303 8.30797 14.0303 8.49791 13.9091L8.92664 13.6341C8.99719 13.5889 10.6578 12.5198 12.3383 10.9695C13.3514 10.0343 14.1672 9.11174 14.7605 8.22716C15.135 7.66819 15.4298 7.11465 15.6324 6.58101C15.8767 5.94244 15.9997 5.31473 15.9997 4.71235C16.0015 4.07379 15.873 3.45332 15.6216 2.86902Z" fill="url(#paint0_linear_111_2793)"/>
<defs>
<linearGradient id="paint0_linear_111_2793" x1="8.18588" y1="0" x2="8.18588" y2="14" gradientUnits="userSpaceOnUse">
<stop stop-color="#FCDD86"/>
<stop offset="1" stop-color="#E2C267"/>
</linearGradient>
</defs>
</svg>
