<svg width="1306" height="702" viewBox="0 0 1306 702" fill="none" xmlns="http://www.w3.org/2000/svg">
<path d="M214.883 412.917C214.883 412.917 428.941 545.256 681.609 406.172C930.687 268.721 1181.36 450.201 1181.36 450.201C1181.36 450.201 931.087 77.4754 556.026 262.929C378.354 350.776 211.906 359.671 40.7578 250.427C40.7713 250.377 85.7585 334.519 214.883 412.917Z" fill="url(#paint0_linear_111_1840)"/>
<g style="mix-blend-mode:overlay">
<path d="M1271.32 454.765C1206.88 401.244 1079.62 322.072 884.721 314.642C592.98 303.503 401.319 544.478 56.1628 273.771C85.317 310.421 136.277 363.523 217.322 415.218C217.322 415.218 456.681 570.66 746.503 418.965C966.983 303.547 1183.41 403.014 1271.32 454.765Z" fill="#EED9BA"/>
</g>
<g style="mix-blend-mode:overlay">
<path d="M634.884 384.101C889.35 328.72 1081.44 353.006 1214.06 394.836C1106.26 284.983 890.632 132.496 604.611 266.522C406.628 359.33 222.593 365.343 36.1081 240.864C36.1081 240.864 38.4605 245.338 43.4666 252.983C138.866 359.244 313.594 453.905 634.884 384.101Z" fill="#F1D0A7"/>
</g>
<defs>
<linearGradient id="paint0_linear_111_1840" x1="608.367" y1="408.604" x2="491.361" y2="618.534" gradientUnits="userSpaceOnUse">
<stop stop-color="#EBB881"/>
<stop offset="1" stop-color="#D17B2F"/>
</linearGradient>
</defs>
</svg>
