<svg width="1440" height="804" viewBox="0 0 1440 804" fill="none" xmlns="http://www.w3.org/2000/svg">
<path fill-rule="evenodd" clip-rule="evenodd" d="M1440 61.782C1350 20.8006 1180.52 -29.9092 956.255 22.1383C843.577 48.2823 752.553 103.294 663.3 157.235C486.648 263.997 316.935 366.566 0 232.821C0.305817 233.046 0.613043 233.271 0.92168 233.496L0 233V502.5L5.42021e-06 741.5L1.98743 742.257C1.31983 742.077 0.657354 741.897 5.40115e-06 741.718C89.9961 782.699 259.483 833.409 483.745 781.362C596.423 755.218 687.447 700.206 776.7 646.265C953.352 539.503 1123.07 436.934 1440 570.679C1439.69 570.454 1439.39 570.229 1439.08 570.004L1440 570.5V502.5V301V62L1438.01 61.2429C1438.68 61.423 1439.34 61.6027 1440 61.782Z" fill="url(#paint0_linear_111_1888)"/>
<defs>
<linearGradient id="paint0_linear_111_1888" x1="720" y1="0" x2="720" y2="803.5" gradientUnits="userSpaceOnUse">
<stop stop-color="#FCDD86"/>
<stop offset="1" stop-color="#E2C267"/>
</linearGradient>
</defs>
</svg>
